:SAMPLES-PER-SECOND 30
:FULLY-SPECIFIED
:DEGREES
280
root  -6.66619 38.891 -9.75417 -109.726 -80.2374 102.009
RightUpLeg  -5.26215 7.02624 -17.3755
RightLeg  64.4841 -0.201216 -1.07791
RightFoot  12.039 -0.939593 4.97011
RightToes  0.000482159 0.542163 -0.142577
Spine  10.9821 0.894566 -5.59768
Spine1  3.52885 1.16745 -3.81772
HEad  12.6066 -1.62716 0.368721
LeftShoulder1  7.00507 -10.6319 -43.0807
LeftArm  -11.691 29.238 -28.5774
LeftForeArm  32.7969 -16.5411 -3.44385
LeftHand  -0.25398 0.0180481 5.50724
RightShoulder  4.53527 7.76387 34.2983
RightArm  -8.52427 -13.2915 39.5893
RightForeArm  4.31953 13.7998 6.21043
RightHand  -1.59322 4.65493 -18.6229
LeftUpLeg  -11.4922 18.3832 -14.3266
LeftLeg  20.2377 2.45804 1.063
LeftFoot  -3.66242 -0.434229 6.7846
LeftToes  1.06246e-005 4.65855e-005 -8.18503e-006
281
root  -8.04307 39.281 -9.40518 -107.626 -80.9734 99.7322
RightUpLeg  -10.0214 7.06455 -15.991
RightLeg  64.7089 -0.59145 -1.97979
RightFoot  9.13644 -1.03484 6.06223
RightToes  0.000482159 0.542163 -0.142577
Spine  11.2748 0.082141 -5.4404
Spine1  3.6187 0.146003 -3.05922
HEad  13.0771 -1.31878 0.261037
LeftShoulder1  6.96029 -10.6167 -42.8373
LeftArm  -11.4188 27.7027 -28.3862
LeftForeArm  33.0908 -21.4186 -3.22595
LeftHand  -0.25398 0.0180481 5.50724
RightShoulder  4.53526 7.73748 34.3912
RightArm  -7.62395 -15.3691 39.234
RightForeArm  7.39968 13.8889 6.0723
RightHand  -1.48893 4.21017 -18.2055
LeftUpLeg  -7.31597 16.3024 -12.797
LeftLeg  17.9627 4.36365 -0.0903867
LeftFoot  -5.2514 -0.300911 6.24323
LeftToes  1.06246e-005 4.65855e-005 -8.18503e-006
282
root  -9.42714 39.579 -9.08814 -100.842 -82.0902 93.2076
RightUpLeg  -14.171 5.86496 -14.0801
RightLeg  61.8988 -1.65151 -3.87312
RightFoot  7.02784 -0.819789 5.33878
RightToes  0.000482159 0.542163 -0.142577
Spine  10.9341 -0.920758 -5.43322
Spine1  3.84019 -1.19101 -1.7997
HEad  13.575 -1.14619 0.300656
LeftShoulder1  6.93481 -10.6354 -42.6105
LeftArm  -12.6404 26.5474 -27.7507
LeftForeArm  35.315 -27.1282 -3.91566
LeftHand  -0.25398 0.0180481 5.50724
RightShoulder  4.43888 7.59026 34.0608
RightArm  -5.06872 -17.9493 38.9274
RightForeArm  7.59256 15.5955 5.81525
RightHand  -1.47273 3.9533 -18.4794
LeftUpLeg  -3.70708 11.6809 -11.1736
LeftLeg  15.6751 7.86974 -1.60103
LeftFoot  -6.62838 -0.203212 5.91528
LeftToes  1.06246e-005 4.65855e-005 -8.18503e-006
283
root  -10.8202 39.83 -8.77961 -91.8209 -83.0075 84.4386
RightUpLeg  -17.2681 4.07233 -12.0151
RightLeg  56.3114 -3.57499 -6.15901
RightFoot  4.67593 -0.485537 3.6906
RightToes  0.000482159 0.542163 -0.142577
Spine  10.5878 -1.83888 -5.83642
Spine1  3.95901 -2.57001 0.0550281
HEad  13.9803 -0.995878 0.413469
LeftShoulder1  6.89964 -10.5932 -42.5153
LeftArm  -13.6916 25.5519 -26.6674
LeftForeArm  37.6381 -33.1894 -5.21036
LeftHand  -0.25398 0.0180481 5.50724
RightShoulder  4.30318 7.41213 33.4754
RightArm  -1.76883 -20.4857 38.4082
RightForeArm  5.30167 17.5969 5.57078
RightHand  -1.47578 3.88732 -18.6416
LeftUpLeg  -0.242274 6.63638 -10.1698
LeftLeg  12.9948 11.3506 -3.05277
LeftFoot  -7.39054 -0.161612 5.97813
LeftToes  1.06246e-005 4.65855e-005 -8.18503e-006
284
root  -12.2072 39.9451 -8.50118 -83.4534 -83.3923 76.1506
RightUpLeg  -19.1097 1.65258 -10.2716
RightLeg  48.1899 -6.08013 -7.5532
RightFoot  2.45562 -0.449569 3.86948
RightToes  0.000482159 0.542163 -0.142577
Spine  10.5859 -2.47656 -6.7734
Spine1  3.82423 -3.73048 1.86461
HEad  14.261 -1.05535 0.747332
LeftShoulder1  6.80885 -10.4801 -42.2788
LeftArm  -14.1575 24.4298 -25.4817
LeftForeArm  39.7591 -38.9307 -6.57681
LeftHand  -0.25398 0.0180481 5.50724
RightShoulder  4.15822 7.19327 32.9288
RightArm  0.770967 -22.8342 37.7275
RightForeArm  2.82977 19.3295 5.3066
RightHand  -1.47501 3.9398 -18.5328
LeftUpLeg  2.86139 3.43473 -9.98519
LeftLeg  11.1403 13.4444 -3.89955
LeftFoot  -8.73661 -0.0838285 5.9726
LeftToes  1.06246e-005 4.65855e-005 -8.18503e-006
285
root  -13.6408 39.8776 -8.25151 -77.9265 -83.2559 70.7705
RightUpLeg  -19.9694 -2.16109 -8.68481
RightLeg  38.1202 -8.10223 -7.03795
RightFoot  1.32787 -0.531729 4.8585
RightToes  0.000482159 0.542163 -0.142577
Spine  10.3922 -2.86519 -8.12898
Spine1  3.69292 -4.57177 3.37904
HEad  14.3597 -1.39747 1.23556
LeftShoulder1  6.68149 -10.3902 -41.7189
LeftArm  -14.6913 23.1722 -24.5468
LeftForeArm  42.2018 -43.9638 -7.94112
LeftHand  -0.25398 0.0180481 5.50724
RightShoulder  4.00117 6.93018 32.4032
RightArm  1.58746 -24.9526 37.239
RightForeArm  1.64755 20.5625 5.08223
RightHand  -1.4747 3.96383 -18.484
LeftUpLeg  5.44939 2.46275 -10.4127
LeftLeg  10.5161 13.9646 -4.06609
LeftFoot  -10.8976 0.0434735 5.67887
LeftToes  1.06246e-005 4.65855e-005 -8.18503e-006
286
root  -15.1323 39.7302 -8.00733 -76.1278 -82.8095 69.256
RightUpLeg  -20.2471 -8.54575 -6.38727
RightLeg  26.6924 -7.49576 -4.6084
RightFoot  0.774659 -0.493677 4.70035
RightToes  0.000482159 0.542163 -0.142577
Spine  9.71159 -3.09663 -9.75523
Spine1  3.90553 -5.21416 5.07028
HEad  14.3095 -1.7794 1.65243
LeftShoulder1  6.56564 -10.3484 -41.0724
LeftArm  -15.3331 21.9136 -23.7643
LeftForeArm  44.4357 -48.1934 -9.27494
LeftHand  -0.25398 0.0180481 5.50724
RightShoulder  3.83211 6.65256 31.7841
RightArm  1.10712 -26.6634 37.0573
RightForeArm  1.2116 21.0582 5.00218
RightHand  -1.49354 3.96812 -18.7034
LeftUpLeg  8.04575 2.36925 -11.2924
LeftLeg  9.78299 13.8933 -4.0078
LeftFoot  -12.6873 0.140975 5.46589
LeftToes  1.06246e-005 4.65855e-005 -8.18503e-006
287
root  -16.65 39.5455 -7.76817 -77.3127 -82.2654 70.584
RightUpLeg  -19.7698 -15.3035 -3.9982
RightLeg  14.8616 -6.15384 -0.861138
RightFoot  0.79012 -0.5251 4.97395
RightToes  0.000482159 0.542163 -0.142577
Spine  9.01361 -3.21079 -11.466
Spine1  4.3172 -5.77417 6.94908
HEad  14.3086 -2.00533 1.94186
LeftShoulder1  6.46476 -10.281 -40.6022
LeftArm  -15.7834 20.6143 -22.9026
LeftForeArm  45.8665 -51.3792 -10.4589
LeftHand  -0.25398 0.0180481 5.50724
RightShoulder  3.65189 6.33028 31.183
RightArm  0.0388774 -27.8624 37.0048
RightForeArm  0.726063 20.7072 5.07059
RightHand  -1.53645 4.05477 -19.0551
LeftUpLeg  10.898 2.21752 -12.3854
LeftLeg  8.81966 14.0784 -4.04403
LeftFoot  -14.2124 0.22178 5.42805
LeftToes  1.06246e-005 4.65855e-005 -8.18503e-006
288
root  -18.2239 39.2634 -7.5362 -79.6631 -81.8411 72.855
RightUpLeg  -17.448 -12.8809 -5.10436
RightLeg  3.81908 -15.916 4.83955
RightFoot  1.66767 -0.854818 7.57345
RightToes  0.000482159 0.542163 -0.142577
Spine  8.50907 -3.31901 -12.8279
Spine1  4.55885 -6.24081 8.46457
HEad  14.4966 -2.12595 2.15543
LeftShoulder1  6.35874 -10.1639 -40.2489
LeftArm  -16.0765 19.2661 -22.1696
LeftForeArm  46.8451 -53.3489 -11.2797
LeftHand  -0.25398 0.0180481 5.50724
RightShoulder  3.4691 5.94964 30.739
RightArm  -1.68627 -28.7255 37.0189
RightForeArm  0.577611 19.772 5.22055
RightHand  -1.56947 4.17986 -19.2096
LeftUpLeg  13.5921 2.44622 -13.1158
LeftLeg  8.9053 14.0986 -4.20068
LeftFoot  -16.4007 0.32794 5.20591
LeftToes  1.06246e-005 4.65855e-005 -8.18503e-006
289
root  -19.8971 38.9044 -7.29907 -81.583 -81.6505 74.8034
RightUpLeg  -15.0421 -9.35259 -5.61309
RightLeg  -4.69076 -28.6704 10.4954
RightFoot  1.89979 -1.13743 9.89527
RightToes  0.000482159 0.542163 -0.142577
Spine  7.70081 -3.62453 -13.5707
Spine1  4.68865 -6.71099 9.4997
HEad  14.8144 -2.17863 2.23976
LeftShoulder1  6.26817 -10.0678 -39.9294
LeftArm  -16.4969 18.2515 -21.8753
LeftForeArm  48.0564 -54.4761 -11.7389
LeftHand  -0.25398 0.0180481 5.50724
RightShoulder  3.31791 5.62861 30.3673
RightArm  -4.02996 -29.5874 37.159
RightForeArm  1.1218 18.8429 5.31622
RightHand  -1.55286 4.20312 -18.9683
LeftUpLeg  15.6889 3.31002 -13.2554
LeftLeg  10.4165 13.4722 -4.21287
LeftFoot  -18.6099 0.402373 4.5763
LeftToes  1.06246e-005 4.65855e-005 -8.18503e-006
290
root  -21.6327 38.6355 -7.03435 -82.9282 -81.9383 76.5146
RightUpLeg  -14.4996 -9.31007 -4.04202
RightLeg  -6.55203 -36.3894 13.0888
RightFoot  0.855446 -0.709681 6.72919
RightToes  0.000482159 0.542163 -0.142577
Spine  6.36766 -4.21773 -13.2239
Spine1  4.9949 -7.34938 10.1805
HEad  15.2118 -2.06749 2.07111
LeftShoulder1  6.23162 -10.0112 -39.8557
LeftArm  -16.8803 17.9552 -21.875
LeftForeArm  49.3038 -55.207 -12.0127
LeftHand  -0.25398 0.0180481 5.50724
RightShoulder  3.21813 5.44524 29.9903
RightArm  -6.15092 -30.6483 37.2031
RightForeArm  1.70196 18.3989 5.28005
RightHand  -1.50634 4.1454 -18.526
LeftUpLeg  17.4303 5.9399 -12.3476
LeftLeg  12.2581 10.9064 -3.82458
LeftFoot  -19.3882 0.366836 3.54754
LeftToes  1.06246e-005 4.65855e-005 -8.18503e-006
291
root  -23.4012 38.5654 -6.71318 -87.1933 -83.3601 81.1219
RightUpLeg  -14.8402 -9.34284 -1.74609
RightLeg  -3.34002 -39.3979 12.2986
RightFoot  0.687583 0.405903 -3.87324
RightToes  0.000482159 0.542163 -0.142577
Spine  5.14334 -4.87834 -10.5632
Spine1  5.30787 -7.92769 10.1778
HEad  15.7534 -1.74609 1.51447
LeftShoulder1  6.22124 -9.87328 -40.2312
LeftArm  -16.7063 18.174 -22.0241
LeftForeArm  49.8273 -55.2498 -11.9945
LeftHand  -0.25398 0.0180481 5.50724
RightShoulder  3.13847 5.28254 29.7447
RightArm  -7.45188 -31.7329 36.6956
RightForeArm  1.90589 18.3668 5.1901
RightHand  -1.47915 4.14316 -18.2072
LeftUpLeg  19.6246 12.5644 -8.69057
LeftLeg  14.0594 4.15014 -3.09384
LeftFoot  -18.6902 0.208991 1.55725
LeftToes  1.06246e-005 4.65855e-005 -8.18503e-006
292
root  -25.2573 38.5086 -6.34814 -107.32 -85.4131 101.108
RightUpLeg  -17.6438 -13.2237 2.45738
RightLeg  8.13577 -34.6152 5.16136
RightFoot  -0.367098 1.47429 -15.2687
RightToes  0.000482159 0.542163 -0.142577
Spine  4.46649 -5.31594 -5.93271
Spine1  5.04366 -7.99751 9.37328
HEad  16.3641 -1.2341 0.476012
LeftShoulder1  6.16657 -9.57491 -40.8331
LeftArm  -16.0569 18.5044 -22.7735
LeftForeArm  49.7555 -54.0689 -11.4148
LeftHand  -0.25398 0.0180481 5.50724
RightShoulder  3.05902 5.07219 29.6922
RightArm  -8.41675 -32.3427 35.5949
RightForeArm  2.34728 18.2742 5.10074
RightHand  -1.46324 4.16791 -17.9729
LeftUpLeg  21.8861 22.2443 -2.00071
LeftLeg  18.4122 -6.03377 -2.72754
LeftFoot  -17.1205 -0.0104367 -2.23789
LeftToes  1.06246e-005 4.65855e-005 -8.18503e-006
293
root  -27.0621 38.4725 -6.0297 -154.606 -86.2349 148.183
RightUpLeg  -20.5932 -24.3815 10.0681
RightLeg  17.1659 -20.0777 -1.749
RightFoot  -1.78687 1.75946 -20.8733
RightToes  0.000482159 0.542163 -0.142577
Spine  4.33203 -5.4277 -1.17387
Spine1  4.4643 -7.78404 8.99734
HEad  16.7561 -0.575919 -0.722007
LeftShoulder1  6.09899 -9.30241 -41.2746
LeftArm  -15.6678 19.0195 -24.4657
LeftForeArm  50.1712 -52.079 -10.4626
LeftHand  -0.25398 0.0180481 5.50724
RightShoulder  3.02195 4.98761 29.6092
RightArm  -9.96317 -32.1327 34.5511
RightForeArm  3.27527 17.8897 4.9863
RightHand  -1.42684 4.09491 -17.6695
LeftUpLeg  21.1389 24.846 3.18443
LeftLeg  26.6576 -9.10866 -4.48305
LeftFoot  -11.7717 0.0723085 -7.75617
LeftToes  1.06246e-005 4.65855e-005 -8.18503e-006
294
root  -28.6528 38.4209 -5.83472 168.778 -84.609 -175.076
RightUpLeg  -22.1389 -29.6729 15.0136
RightLeg  22.1453 -12.1235 -5.40882
RightFoot  -4.17023 1.22204 -19.5688
RightToes  0.000482159 0.542163 -0.142577
Spine  4.60748 -5.60477 1.41019
Spine1  3.99295 -7.91281 10.3148
HEad  16.8203 -0.0792955 -1.17541
LeftShoulder1  6.14392 -9.33308 -41.4959
LeftArm  -15.6732 19.8666 -26.4198
LeftForeArm  51.6547 -50.4587 -9.67586
LeftHand  -0.25398 0.0180481 5.50724
RightShoulder  3.0477 5.12443 29.3392
RightArm  -12.2245 -31.2901 34.2859
RightForeArm  3.4418 17.5711 4.8524
RightHand  -1.42291 4.06976 -17.6668
LeftUpLeg  16.0784 23.7704 6.11534
LeftLeg  38.2271 -8.49424 -6.72012
LeftFoot  -0.769318 1.30076 -13.7072
LeftToes  1.06246e-005 4.65855e-005 -8.18503e-006
